<svg width="664" height="90" viewBox="0 0 664 90" fill="none" xmlns="http://www.w3.org/2000/svg">
<g clip-path="url(#clip0_12_103)">
<path d="M50.701 15.2147C51.5944 15.4481 52.3513 16.0013 52.8055 16.7527C53.2597 17.5042 53.3739 18.3924 53.123 19.222L37.618 70.533C37.4939 70.944 37.2839 71.3283 36.9998 71.6639C36.7158 71.9995 36.3633 72.2799 35.9626 72.4891C35.5619 72.6982 35.1207 72.832 34.6643 72.8828C34.2079 72.9336 33.7451 72.9005 33.3025 72.7853C32.8599 72.67 32.4461 72.475 32.0846 72.2112C31.7232 71.9475 31.4212 71.6202 31.196 71.2481C30.9708 70.876 30.8267 70.4663 30.7719 70.0425C30.7172 69.6187 30.7529 69.189 30.877 68.778L46.382 17.467C46.506 17.0556 46.7162 16.671 47.0005 16.335C47.2847 15.9991 47.6375 15.7186 48.0386 15.5094C48.4398 15.3002 48.8814 15.1665 49.3382 15.1159C49.7951 15.0654 50.2582 15.099 50.701 15.2147ZM25.2245 27.9125C25.8807 28.522 26.2493 29.3485 26.2493 30.2102C26.2493 31.072 25.8807 31.8985 25.2245 32.508L12.852 44L25.2245 55.4887C25.5497 55.7905 25.8077 56.1488 25.9838 56.5431C26.1599 56.9374 26.2506 57.3601 26.2507 57.787C26.2509 58.2139 26.1605 58.6366 25.9847 59.031C25.8089 59.4255 25.5512 59.7839 25.2263 60.0859C24.9013 60.3878 24.5155 60.6274 24.0908 60.7909C23.6662 60.9544 23.211 61.0386 22.7513 61.0388C22.2915 61.0389 21.8363 60.955 21.4115 60.7918C20.9867 60.6286 20.6007 60.3892 20.2755 60.0875L5.42502 46.2977C4.76887 45.6883 4.40027 44.8618 4.40027 44C4.40027 43.1382 4.76887 42.3117 5.42502 41.7022L20.2755 27.9125C20.9319 27.3032 21.8219 26.9609 22.75 26.9609C23.6781 26.9609 24.5682 27.3032 25.2245 27.9125ZM58.7755 32.508C58.4412 32.2082 58.1746 31.8496 57.9912 31.4531C57.8077 31.0565 57.7112 30.6301 57.7071 30.1986C57.7031 29.767 57.7917 29.3391 57.9676 28.9396C58.1436 28.5402 58.4035 28.1774 58.7321 27.8722C59.0608 27.5671 59.4515 27.3257 59.8817 27.1623C60.3118 26.9989 60.7727 26.9167 61.2374 26.9204C61.7021 26.9242 62.1614 27.0138 62.5884 27.1842C63.0154 27.3545 63.4017 27.6021 63.7245 27.9125L78.575 41.7022C79.2312 42.3117 79.5998 43.1382 79.5998 44C79.5998 44.8618 79.2312 45.6883 78.575 46.2977L63.7245 60.0842C63.0644 60.6763 62.1803 61.0038 61.2626 60.9964C60.3449 60.989 59.4671 60.6472 58.8182 60.0447C58.1692 59.4421 57.8011 58.6269 57.7932 57.7748C57.7852 56.9227 58.138 56.1017 58.7755 55.4887L71.148 44L58.7755 32.508Z" fill="#F5BD02"/>
</g>
<path d="M594.356 7.44535C593.74 7.40938 593.124 7.49975 592.55 7.71003C591.976 7.92031 591.46 8.24534 591.037 8.66202C590.613 9.0787 590.294 9.5768 590.102 10.1209C589.91 10.665 589.849 11.2418 589.924 11.8102L596.272 75.0581C596.677 78.1297 600.587 79.561 603.139 77.572L616.535 67.4851L622.541 77.1454C625.995 82.7005 631.475 84.0655 637.458 80.8582C643.44 77.6508 644.908 72.5605 641.454 67.0054L635.469 57.3802L651.342 51.7299C654.474 50.6714 655.094 46.8112 652.434 44.9493L596.619 8.22067C595.962 7.76198 595.176 7.4924 594.356 7.44535Z" fill="#F5BD02"/>
<path d="M372.477 6H295.197C293.338 6 291.837 7.39425 291.837 9.12V80.88C291.837 82.6058 293.338 84 295.197 84H372.477C374.335 84 375.837 82.6058 375.837 80.88V9.12C375.837 7.39425 374.335 6 372.477 6ZM333.952 45.5947L313.792 61.2922C313.246 61.7212 312.417 61.3605 312.417 60.6975V54.5842C312.417 54.36 312.532 54.1357 312.721 53.9895L324.25 45L312.721 36.0105C312.625 35.9397 312.547 35.8493 312.494 35.7461C312.441 35.643 312.415 35.5299 312.417 35.4158V29.3025C312.417 28.6395 313.246 28.2787 313.792 28.7077L333.952 44.3955C334.362 44.7075 334.362 45.2827 333.952 45.5947ZM355.257 60.6975C355.257 61.1265 354.9 61.4775 354.469 61.4775H335.044C334.614 61.4775 334.257 61.1265 334.257 60.6975V56.0175C334.257 55.5885 334.614 55.2375 335.044 55.2375H354.469C354.9 55.2375 355.257 55.5885 355.257 56.0175V60.6975Z" fill="#F5BD02"/>
<defs>
<clipPath id="clip0_12_103">
<rect width="84" height="78" fill="white" transform="translate(0 5)"/>
</clipPath>
</defs>
</svg>
