<svg width="74" height="20" viewBox="0 0 74 20" fill="none" xmlns="http://www.w3.org/2000/svg">
<path d="M20 10.0253C20 4.50533 15.52 0.0253296 10 0.0253296C4.48 0.0253296 0 4.50533 0 10.0253C0 14.8653 3.44 18.8953 8 19.8253V13.0253H6V10.0253H8V7.52533C8 5.59533 9.57 4.02533 11.5 4.02533H14V7.02533H12C11.45 7.02533 11 7.47533 11 8.02533V10.0253H14V13.0253H11V19.9753C16.05 19.4753 20 15.2153 20 10.0253Z" fill="white"/>
<path d="M41.0286 0.0012304C41.7583 -0.00156983 42.488 0.00576429 43.2176 0.0232305L43.4116 0.0302304C43.6356 0.0382304 43.8566 0.0482304 44.1236 0.0602304C45.1876 0.11023 45.9136 0.278231 46.5506 0.525231C47.2106 0.779231 47.7666 1.12323 48.3226 1.67923C48.831 2.17884 49.2244 2.78318 49.4756 3.45023C49.7226 4.08723 49.8906 4.81423 49.9406 5.87823C49.9526 6.14423 49.9626 6.36623 49.9706 6.59023L49.9766 6.78423C49.9943 7.51342 50.002 8.24283 49.9996 8.97223L50.0006 9.71823V11.0282C50.003 11.758 49.9954 12.4877 49.9776 13.2172L49.9716 13.4112C49.9636 13.6352 49.9536 13.8562 49.9416 14.1232C49.8916 15.1872 49.7216 15.9132 49.4756 16.5502C49.2252 17.218 48.8317 17.8228 48.3226 18.3222C47.8225 18.8306 47.2179 19.224 46.5506 19.4752C45.9136 19.7222 45.1876 19.8902 44.1236 19.9402C43.8566 19.9522 43.6356 19.9622 43.4116 19.9702L43.2176 19.9762C42.4881 19.994 41.7583 20.0017 41.0286 19.9992L40.2826 20.0002H38.9736C38.2438 20.0027 37.5141 19.995 36.7846 19.9772L36.5906 19.9712C36.3532 19.9626 36.1158 19.9526 35.8786 19.9412C34.8146 19.8912 34.0886 19.7212 33.4506 19.4752C32.7833 19.2246 32.1788 18.8311 31.6796 18.3222C31.1706 17.8225 30.7768 17.2178 30.5256 16.5502C30.2786 15.9132 30.1106 15.1872 30.0606 14.1232C30.0494 13.8859 30.0394 13.6486 30.0306 13.4112L30.0256 13.2172C30.0071 12.4877 29.9988 11.758 30.0006 11.0282V8.97223C29.9978 8.24283 30.0051 7.51343 30.0226 6.78423L30.0296 6.59023C30.0376 6.36623 30.0476 6.14423 30.0596 5.87823C30.1096 4.81323 30.2776 4.08823 30.5246 3.45023C30.7759 2.78285 31.1705 2.17868 31.6806 1.68023C32.1795 1.17098 32.7835 0.776803 33.4506 0.525231C34.0886 0.278231 34.8136 0.11023 35.8786 0.0602304L36.5906 0.0302304L36.7846 0.0252306C37.5138 0.00680338 38.2432 -0.00153085 38.9726 0.000230468L41.0286 0.0012304ZM40.0006 5.00123C39.3381 4.99186 38.6803 5.11425 38.0656 5.3613C37.4508 5.60834 36.8912 5.97511 36.4194 6.44029C35.9476 6.90546 35.573 7.45977 35.3173 8.07099C35.0616 8.68222 34.9299 9.33817 34.9299 10.0007C34.9299 10.6633 35.0616 11.3192 35.3173 11.9305C35.573 12.5417 35.9476 13.096 36.4194 13.5612C36.8912 14.0264 37.4508 14.3931 38.0656 14.6402C38.6803 14.8872 39.3381 15.0096 40.0006 15.0002C41.3267 15.0002 42.5984 14.4734 43.5361 13.5358C44.4738 12.5981 45.0006 11.3263 45.0006 10.0002C45.0006 8.67415 44.4738 7.40238 43.5361 6.4647C42.5984 5.52701 41.3267 5.00123 40.0006 5.00123ZM40.0006 7.00123C40.3991 6.99389 40.7951 7.06603 41.1654 7.21344C41.5357 7.36085 41.8729 7.58057 42.1574 7.85978C42.4418 8.13898 42.6678 8.47206 42.822 8.83957C42.9763 9.20708 43.0558 9.60165 43.0558 10.0002C43.0559 10.3988 42.9766 10.7934 42.8224 11.1609C42.6683 11.5285 42.4424 11.8617 42.1581 12.141C41.8737 12.4203 41.5366 12.6401 41.1663 12.7876C40.796 12.9352 40.4001 13.0074 40.0016 13.0002C39.2059 13.0002 38.4429 12.6842 37.8803 12.1216C37.3176 11.5589 37.0016 10.7959 37.0016 10.0002C37.0016 9.20458 37.3176 8.44152 37.8803 7.87891C38.4429 7.3163 39.2059 7.00023 40.0016 7.00023L40.0006 7.00123ZM45.2506 3.50123C44.928 3.51414 44.6229 3.65138 44.3992 3.8842C44.1755 4.11702 44.0506 4.42736 44.0506 4.75023C44.0506 5.0731 44.1755 5.38344 44.3992 5.61626C44.6229 5.84908 44.928 5.98632 45.2506 5.99923C45.5821 5.99923 45.9 5.86753 46.1345 5.63311C46.3689 5.39869 46.5006 5.08075 46.5006 4.74923C46.5006 4.41771 46.3689 4.09977 46.1345 3.86535C45.9 3.63093 45.5821 3.49923 45.2506 3.49923V3.50123Z" fill="white"/>
<path d="M68.095 8.92824L73.158 3.00024H71.958L67.563 8.14724L64.051 3.00024H60.001L65.311 10.7842L60.001 17.0002H61.201L65.843 11.5642L69.552 17.0002H73.602L68.095 8.92824ZM66.452 10.8522L65.914 10.0772L61.633 3.91024H63.476L66.93 8.88724L67.468 9.66224L71.959 16.1322H70.116L66.452 10.8522Z" fill="white"/>
</svg>
