<svg width="60" height="60" viewBox="0 0 60 60" fill="none" xmlns="http://www.w3.org/2000/svg">
<path d="M19.5 5H40.5C48.5 5 55 11.5 55 19.5V40.5C55 44.3456 53.4723 48.0338 50.7531 50.7531C48.0338 53.4723 44.3456 55 40.5 55H19.5C11.5 55 5 48.5 5 40.5V19.5C5 15.6544 6.52767 11.9662 9.24695 9.24695C11.9662 6.52767 15.6544 5 19.5 5ZM19 10C16.6131 10 14.3239 10.9482 12.636 12.636C10.9482 14.3239 10 16.6131 10 19V41C10 45.975 14.025 50 19 50H41C43.3869 50 45.6761 49.0518 47.364 47.364C49.0518 45.6761 50 43.3869 50 41V19C50 14.025 45.975 10 41 10H19ZM43.125 13.75C43.9538 13.75 44.7487 14.0792 45.3347 14.6653C45.9208 15.2513 46.25 16.0462 46.25 16.875C46.25 17.7038 45.9208 18.4987 45.3347 19.0847C44.7487 19.6708 43.9538 20 43.125 20C42.2962 20 41.5013 19.6708 40.9153 19.0847C40.3292 18.4987 40 17.7038 40 16.875C40 16.0462 40.3292 15.2513 40.9153 14.6653C41.5013 14.0792 42.2962 13.75 43.125 13.75ZM30 17.5C33.3152 17.5 36.4946 18.817 38.8388 21.1612C41.183 23.5054 42.5 26.6848 42.5 30C42.5 33.3152 41.183 36.4946 38.8388 38.8388C36.4946 41.183 33.3152 42.5 30 42.5C26.6848 42.5 23.5054 41.183 21.1612 38.8388C18.817 36.4946 17.5 33.3152 17.5 30C17.5 26.6848 18.817 23.5054 21.1612 21.1612C23.5054 18.817 26.6848 17.5 30 17.5ZM30 22.5C28.0109 22.5 26.1032 23.2902 24.6967 24.6967C23.2902 26.1032 22.5 28.0109 22.5 30C22.5 31.9891 23.2902 33.8968 24.6967 35.3033C26.1032 36.7098 28.0109 37.5 30 37.5C31.9891 37.5 33.8968 36.7098 35.3033 35.3033C36.7098 33.8968 37.5 31.9891 37.5 30C37.5 28.0109 36.7098 26.1032 35.3033 24.6967C33.8968 23.2902 31.9891 22.5 30 22.5Z" fill="#F5BD02"/>
</svg>
