<svg width="39" height="39" viewBox="0 0 39 39" fill="none" xmlns="http://www.w3.org/2000/svg">
<path d="M30.4897 29.0535C30.7908 29.3856 30.9477 29.8238 30.9258 30.2716C30.9039 30.7194 30.7051 31.1401 30.3729 31.4413C30.0408 31.7424 29.6027 31.8993 29.1549 31.8774C28.7071 31.8555 28.2863 31.6567 27.9852 31.3245L19.5037 21.9681L10.1472 30.4496C9.81511 30.7507 9.37696 30.9076 8.92917 30.8857C8.48138 30.8638 8.06062 30.665 7.75946 30.3328C7.4583 30.0007 7.30142 29.5626 7.32331 29.1148C7.3452 28.667 7.54409 28.2462 7.8762 27.9451L17.2326 19.4636L8.75116 10.1071C8.45 9.77502 8.29311 9.33687 8.31501 8.88908C8.3369 8.44129 8.53578 8.02053 8.8679 7.71937C9.20002 7.41821 9.63817 7.26133 10.086 7.28322C10.5338 7.30511 10.9545 7.504 11.2557 7.83612L19.7372 17.1926L29.0938 8.70685C29.4259 8.4057 29.8641 8.24881 30.3119 8.2707C30.7597 8.2926 31.1804 8.49148 31.4816 8.8236C31.7827 9.15572 31.9396 9.59387 31.9177 10.0417C31.8958 10.4895 31.697 10.9102 31.3648 11.2114L22.0082 19.6971L30.4897 29.0535Z" fill="white"/>
</svg>
