<svg width="41" height="41" viewBox="0 0 41 41" fill="none" xmlns="http://www.w3.org/2000/svg">
<path d="M32.714 27.8951C33.0683 28.1699 33.2989 28.5741 33.3551 29.0189C33.4113 29.4637 33.2886 29.9126 33.0138 30.2669C32.739 30.6212 32.3348 30.8518 31.89 30.908C31.4452 30.9642 30.9963 30.8414 30.642 30.5666L20.6644 22.8255L12.9233 32.8032C12.6485 33.1575 12.2443 33.3881 11.7995 33.4443C11.3547 33.5005 10.9058 33.3777 10.5515 33.103C10.1972 32.8282 9.96664 32.424 9.91043 31.9792C9.85421 31.5344 9.97699 31.0855 10.2518 30.7312L17.9929 20.7535L8.01519 13.0124C7.66093 12.7377 7.43032 12.3334 7.37411 11.8886C7.31789 11.4438 7.44067 10.9949 7.71543 10.6407C7.9902 10.2864 8.39444 10.0558 8.83923 9.99959C9.28402 9.94338 9.73293 10.0662 10.0872 10.3409L20.0649 18.082L27.8054 8.10017C28.0802 7.74591 28.4844 7.5153 28.9292 7.45909C29.374 7.40287 29.8229 7.52565 30.1772 7.80042C30.5315 8.07518 30.7621 8.47942 30.8183 8.92421C30.8745 9.369 30.7517 9.81791 30.477 10.1722L22.7364 20.154L32.714 27.8951Z" fill="white"/>
</svg>
