<svg width="40" height="40" viewBox="0 0 40 40" fill="none" xmlns="http://www.w3.org/2000/svg">
<path d="M32.3765 27.4913C32.7222 27.7767 32.9404 28.1878 32.9831 28.6341C33.0258 29.0804 32.8894 29.5253 32.604 29.8711C32.3186 30.2168 31.9075 30.435 31.4612 30.4777C31.0149 30.5203 30.5699 30.384 30.2242 30.0986L20.4866 22.0576L12.4456 31.7952C12.1602 32.141 11.7491 32.3592 11.3028 32.4018C10.8565 32.4445 10.4116 32.3081 10.0658 32.0227C9.72008 31.7373 9.50187 31.3262 9.45921 30.88C9.41655 30.4337 9.55292 29.9887 9.83833 29.6429L17.8793 19.9053L8.14165 11.8644C7.79591 11.5789 7.5777 11.1679 7.53504 10.7216C7.49238 10.2753 7.62875 9.83032 7.91416 9.48457C8.19957 9.13883 8.61064 8.92062 9.05694 8.87796C9.50323 8.8353 9.94819 8.97167 10.2939 9.25709L20.0316 17.298L28.0721 7.55621C28.3575 7.21046 28.7686 6.99226 29.2149 6.94959C29.6612 6.90693 30.1062 7.04331 30.4519 7.32872C30.7977 7.61413 31.0159 8.0252 31.0585 8.47149C31.1012 8.91779 30.9648 9.36275 30.6794 9.70849L22.6388 19.4503L32.3765 27.4913Z" fill="white"/>
</svg>
