<svg width="156" height="149" viewBox="0 0 156 149" fill="none" xmlns="http://www.w3.org/2000/svg">
<g filter="url(#filter0_d_37_29)">
<path d="M78 36.1111C74.4638 36.1111 71.0724 34.7883 68.5719 32.4337C66.0714 30.0791 64.6667 26.8855 64.6667 23.5556C64.6667 20.2256 66.0714 17.0321 68.5719 14.6774C71.0724 12.3228 74.4638 11 78 11C81.5362 11 84.9276 12.3228 87.4281 14.6774C89.9286 17.0321 91.3333 20.2256 91.3333 23.5556C91.3333 26.8855 89.9286 30.0791 87.4281 32.4337C84.9276 34.7883 81.5362 36.1111 78 36.1111ZM78 36.1111V61.2222M78 61.2222C83.3043 61.2222 88.3914 63.2064 92.1421 66.7384C95.8929 70.2703 98 75.0606 98 80.0556C98 85.0505 95.8929 89.8408 92.1421 93.3727C88.3914 96.9047 83.3043 98.8889 78 98.8889C72.6957 98.8889 67.6086 96.9047 63.8579 93.3727C60.1071 89.8408 58 85.0505 58 80.0556C58 75.0606 60.1071 70.2703 63.8579 66.7384C67.6086 63.2064 72.6957 61.2222 78 61.2222ZM42.6667 103.911L61.3333 91.3556M113.333 103.911L94.6667 91.3556M18 111.444C18 114.774 19.4048 117.968 21.9052 120.323C24.4057 122.677 27.7971 124 31.3333 124C34.8696 124 38.2609 122.677 40.7614 120.323C43.2619 117.968 44.6667 114.774 44.6667 111.444C44.6667 108.115 43.2619 104.921 40.7614 102.566C38.2609 100.212 34.8696 98.8889 31.3333 98.8889C27.7971 98.8889 24.4057 100.212 21.9052 102.566C19.4048 104.921 18 108.115 18 111.444ZM111.333 111.444C111.333 114.774 112.738 117.968 115.239 120.323C117.739 122.677 121.13 124 124.667 124C128.203 124 131.594 122.677 134.095 120.323C136.595 117.968 138 114.774 138 111.444C138 108.115 136.595 104.921 134.095 102.566C131.594 100.212 128.203 98.8889 124.667 98.8889C121.13 98.8889 117.739 100.212 115.239 102.566C112.738 104.921 111.333 108.115 111.333 111.444Z" stroke="#039500" stroke-width="5" stroke-linecap="round" stroke-linejoin="round"/>
</g>
<defs>
<filter id="filter0_d_37_29" x="0.5" y="0.5" width="155" height="148" filterUnits="userSpaceOnUse" color-interpolation-filters="sRGB">
<feFlood flood-opacity="0" result="BackgroundImageFix"/>
<feColorMatrix in="SourceAlpha" type="matrix" values="0 0 0 0 0 0 0 0 0 0 0 0 0 0 0 0 0 0 127 0" result="hardAlpha"/>
<feOffset dy="7"/>
<feGaussianBlur stdDeviation="7.5"/>
<feComposite in2="hardAlpha" operator="out"/>
<feColorMatrix type="matrix" values="0 0 0 0 0 0 0 0 0 0 0 0 0 0 0 0 0 0 0.3 0"/>
<feBlend mode="normal" in2="BackgroundImageFix" result="effect1_dropShadow_37_29"/>
<feBlend mode="normal" in="SourceGraphic" in2="effect1_dropShadow_37_29" result="shape"/>
</filter>
</defs>
</svg>
